<svg width="513" height="513" viewBox="0 0 513 513" fill="none" xmlns="http://www.w3.org/2000/svg">
<g clip-path="url(#clip0_38_16525)">
<path d="M378.958 217.879C375.048 213.969 368.718 213.969 364.808 217.879C360.908 221.779 360.908 228.109 364.808 232.019C368.718 235.929 375.048 235.929 378.958 232.019C382.859 228.109 382.859 221.779 378.958 217.879Z" fill="white"/>
<path d="M503.161 65.3894L446.589 8.81839C434.865 -2.90361 415.892 -2.90761 404.166 8.81839L386.026 26.9584C378.588 34.3964 375.741 44.8694 377.985 54.8214L295.973 69.2924C277.683 72.5294 261.088 81.1744 247.988 94.2864L230.456 111.808C218.91 123.354 214.205 139.189 216.335 154.232C201.18 152.092 185.477 156.797 173.897 168.376C162.334 179.932 157.606 195.622 159.745 210.809C144.596 208.678 128.897 213.377 117.326 224.948C106.092 236.182 100.975 251.737 103.185 267.397C88.14 265.265 72.304 269.97 60.756 281.517L20.465 321.798C-6.82199 349.087 -6.82299 393.499 20.466 420.801L91.178 491.512C118.475 518.796 162.884 518.803 190.18 491.51L230.459 451.22C242.007 439.672 246.712 423.833 244.578 408.787C260.169 410.986 275.751 405.928 287.028 394.651C298.572 383.107 303.276 367.272 301.145 352.226C316.653 354.416 332.259 349.432 343.599 338.081C355.144 326.536 359.848 310.703 357.718 295.661C373.373 297.871 388.932 292.758 400.172 281.518L417.687 263.994C430.805 250.888 439.449 234.292 442.686 215.997L457.156 133.992C467.089 136.231 477.566 133.405 485.02 125.951L503.16 107.811C514.885 96.0874 514.887 77.1144 503.161 65.3894ZM216.316 437.078L176.037 477.367C156.545 496.86 124.819 496.859 105.319 477.367L34.61 406.66C15.117 387.158 15.117 355.433 34.608 335.941L74.899 295.66C86.596 283.962 105.629 283.962 117.327 295.66L216.317 394.649C228.015 406.347 228.015 425.38 216.316 437.078ZM272.885 380.508C261.193 392.2 242.199 392.249 230.458 380.508L131.468 281.518C119.747 269.796 119.744 250.815 131.469 239.09C143.182 227.376 162.15 227.372 173.888 239.083C173.891 239.086 173.893 239.088 173.896 239.091L272.882 338.076L272.883 338.077C272.883 338.077 272.883 338.077 272.883 338.078C284.578 349.781 284.58 368.814 272.885 380.508ZM329.453 323.942C317.742 335.667 298.746 335.669 287.029 323.938L188.036 224.946C176.308 213.226 176.302 194.248 188.039 182.52C199.768 170.791 218.726 170.789 230.457 182.52L329.457 281.52C341.153 293.214 341.153 312.243 329.453 323.942ZM422.991 212.518C420.473 226.747 413.751 239.655 403.545 249.851L386.027 267.378C374.33 279.076 355.297 279.076 343.599 267.378L244.599 168.378C232.902 156.68 232.902 137.648 244.597 125.952L262.132 108.427C272.322 98.2274 285.231 91.5054 299.454 88.9874L389.708 73.0624L438.915 122.27L422.991 212.518ZM489.018 93.6694L470.878 111.809C466.97 115.716 460.649 115.717 456.74 111.809L400.17 55.2384C396.263 51.3294 396.262 45.0094 400.171 41.1004L418.311 22.9604C422.22 19.0524 428.541 19.0534 432.449 22.9604L489.018 79.5314C492.919 83.4334 492.933 89.7524 489.018 93.6694Z" fill="white"/>
<path d="M505.415 378.782L460.855 291.483C459.146 288.136 455.706 286.029 451.948 286.029C448.19 286.029 444.75 288.136 443.041 291.483L398.484 378.778C378.232 418.399 407.091 466.029 451.948 466.029C496.797 466.029 525.666 418.407 505.415 378.782ZM451.948 446.029C422.014 446.029 402.82 414.239 416.296 387.875L451.948 318.025L487.603 387.879C501.062 414.214 481.911 446.029 451.948 446.029Z" fill="white"/>
<path d="M350.671 189.588L302.391 141.308C298.485 137.403 292.155 137.403 288.248 141.308C284.343 145.213 284.343 151.545 288.248 155.45L336.528 203.73C340.434 207.635 346.764 207.635 350.671 203.73C354.576 199.824 354.576 193.493 350.671 189.588Z" fill="white"/>
</g>
<defs>
<clipPath id="clip0_38_16525">
<rect width="512.003" height="512.003" fill="white"/>
</clipPath>
</defs>
</svg>
