<svg width="1300" height="319" viewBox="0 0 1300 319" fill="none" xmlns="http://www.w3.org/2000/svg">
<path fill-rule="evenodd" clip-rule="evenodd" d="M163.183 10.2891V159.071C163.183 212.55 189.235 258.493 235.865 286.601C187.179 315.404 130.962 315.404 82.9638 286.601C128.899 258.493 154.958 212.55 154.958 159.071V10.2891H163.183ZM176.209 135.075C186.498 190.611 223.52 232.433 277 249.579L266.71 261.917C213.238 239.978 179.641 192.667 176.209 135.075V135.075ZM141.932 135.075C131.643 190.611 94.6213 232.433 41.1416 249.579L52.1112 261.917C104.903 239.297 137.819 192.667 141.932 135.075V135.075ZM21.2513 213.926C82.9638 201.581 128.899 157.014 141.925 95.3092C123.41 152.902 76.0994 191.979 15.7628 198.149L21.2513 213.926ZM302.371 198.149L296.89 213.926C235.177 201.581 189.923 157.014 176.897 95.3092C194.724 152.902 242.034 191.979 302.371 198.149ZM15.7702 198.149L21.2513 213.926L15.7702 198.149ZM170.04 10.9696C170.04 89.1328 229.689 152.902 307.86 158.383C307.86 80.2195 248.203 16.4581 170.04 10.9696ZM159.071 0C71.3063 0 0 71.3062 0 159.071C0 246.835 71.3063 318.141 159.071 318.141C246.835 318.141 318.141 246.835 318.141 159.071C318.141 71.3062 246.835 0 159.071 0V0ZM10.9696 158.383C88.4523 152.902 148.101 89.1328 148.781 10.9696C70.6183 16.4581 10.9696 80.2195 10.9696 158.383ZM1265.02 42.5101C1245.82 42.5101 1230.05 58.2803 1230.05 78.1632C1230.05 97.3656 1245.82 113.136 1265.02 113.136C1284.22 113.136 1300 97.3656 1300 78.1632C1300 58.2803 1284.22 42.5101 1265.02 42.5101ZM1265.02 45.2543C1247.19 45.2543 1232.81 60.344 1232.81 78.1632C1232.81 95.9971 1247.19 110.391 1265.02 110.391C1282.85 110.391 1297.25 95.9971 1297.25 78.1632C1297.26 60.3366 1282.85 45.2543 1265.02 45.2543Z" fill="#5C607C"/>
<path fill-rule="evenodd" clip-rule="evenodd" d="M1270.51 54.8555H1249.26V100.102H1252V78.1632H1263.64L1278.05 100.79L1280.79 99.4219L1267.76 78.1632H1270.5C1275.99 76.7948 1280.1 71.9941 1280.1 66.5056C1280.8 61.0245 1276 55.536 1270.51 54.8555V54.8555ZM1268.46 58.2803C1273.25 58.2803 1277.37 61.705 1277.37 66.5056C1277.37 71.3062 1273.25 74.731 1268.46 74.731H1252V58.2729H1268.46V58.2803ZM505.328 205.013V195.412C505.328 189.243 499.839 183.754 492.99 183.066H420.308V232.433H492.99C494.612 232.441 496.22 232.127 497.72 231.51C499.221 230.893 500.584 229.984 501.731 228.837C502.879 227.69 503.787 226.326 504.404 224.826C505.022 223.326 505.336 221.718 505.328 220.095V205.013ZM371.621 205.013V37.0289H518.354C521.528 37.0435 524.666 37.7025 527.578 38.9658C530.49 40.2291 533.115 42.0705 535.294 44.3784C537.474 46.6863 539.162 49.4127 540.256 52.3923C541.351 55.3719 541.829 58.5427 541.661 61.7125V110.399C541.661 123.425 530.692 134.395 517.666 134.395H530.004C543.03 135.082 553.999 145.364 553.999 159.078V256.444C553.999 270.157 543.03 281.127 530.004 281.127H371.621V205.013ZM570.458 205.013V260.549C570.458 271.518 579.371 281.12 590.34 281.12H692.507C703.469 281.12 712.389 271.518 712.389 260.549V239.985H610.919V220.103H692.514C701.427 220.103 709.645 213.246 711.702 205.02C712.397 202.964 712.397 201.588 712.397 199.532V138.515C712.393 133.243 710.297 128.188 706.569 124.46C702.841 120.732 697.786 118.636 692.514 118.632H590.348C585.076 118.636 580.021 120.732 576.293 124.46C572.565 128.188 570.469 133.243 570.465 138.515V205.013H570.458V205.013ZM779.583 205.013L748.723 239.985H724.728V256.444C724.728 270.157 735.705 281.127 748.723 281.127H769.294L815.917 226.959L862.554 281.127H883.11C896.824 281.127 907.121 270.157 907.121 256.444V239.985H883.11L852.265 205.013L843.352 194.724L874.892 159.071H903.008V138.507C903.004 133.234 900.907 128.178 897.177 124.45C893.448 120.721 888.391 118.626 883.118 118.624H854.321L815.924 163.191L777.541 118.624H748.731C743.458 118.628 738.403 120.724 734.676 124.452C730.948 128.18 728.852 133.235 728.848 138.507V159.071H756.963L788.504 194.724L779.583 205.013V205.013ZM919.459 205.013V260.549C919.459 272.206 928.372 281.12 940.029 281.12H1041.49C1052.47 281.12 1061.38 272.206 1061.38 260.549V239.985H959.905V220.103H1041.49C1051.09 220.103 1058.63 213.246 1061.38 205.02V200.22V138.515C1061.37 133.241 1059.27 128.185 1055.55 124.457C1051.82 120.729 1046.76 118.634 1041.49 118.632H940.022C928.365 118.632 919.451 127.545 919.451 138.515V205.013H919.459V205.013ZM1077.85 205.013V260.549C1077.85 272.206 1087.44 281.12 1098.42 281.12H1118.3V159.071H1183.45V281.12H1204C1214.98 281.12 1223.89 272.206 1223.89 260.549H1224.57H1223.89V138.507C1223.89 133.234 1221.79 128.178 1218.06 124.45C1214.33 120.721 1209.28 118.626 1204 118.624H1098.43C1087.45 118.624 1077.86 127.538 1077.86 138.507V205.013H1077.85V205.013ZM1020.94 179.641V159.071H959.912V179.641H1020.94ZM671.943 179.641V159.071H610.919V179.641H671.943ZM492.982 122.73C492.982 128.899 487.494 134.387 480.644 134.387H420.308V85.708H480.644C487.501 85.708 492.982 91.1965 492.982 98.0461V122.73V122.73Z" fill="#5C607C"/>
</svg>
