<svg width="1300" height="575" viewBox="0 0 1300 575" fill="none" xmlns="http://www.w3.org/2000/svg">
<path fill-rule="evenodd" clip-rule="evenodd" d="M783.531 565.29L886.989 8.84559H1037.09L1102.44 343.15L1103.99 341.684L1121.1 149.805L1147.55 8.84559H1300L1196.54 565.29H1044.1L985.763 243.528L984.2 245.001L965.536 402.199L935.191 565.29H783.531ZM525.314 429.507C553.317 429.507 577.943 414.984 599.206 385.953C617.87 360.862 630.836 328.884 638.097 290.014C641.217 273.782 642.766 257.786 642.766 242.048C642.766 213.517 637.576 190.635 627.216 173.416C616.841 156.198 600.505 147.588 578.207 147.588L525.314 429.507ZM342.524 565.29L445.975 8.84559H575.094C650.799 8.84559 708.354 26.8077 747.753 62.7181C787.165 98.6354 806.886 149.312 806.886 214.74C806.886 233.438 805.322 253.117 802.216 273.782C782.51 378.08 741.277 455.085 678.538 504.774C627.209 545.125 565.234 565.29 492.642 565.29H342.524V565.29ZM325.125 405.145L297.9 553.484C265.749 567.256 231.52 574.142 195.235 574.142C140.271 574.142 95.1611 557.667 59.89 524.703C19.9703 487.312 0 434.183 0 365.309C0 342.67 2.34168 318.065 7.01114 291.508C24.1116 199.008 63.0099 126.201 123.671 73.0646C179.149 24.3618 241.902 0 311.902 0C341.975 0 370.75 4.43323 398.231 13.2857L368.679 173.43C352.607 149.325 328.745 137.27 297.122 137.27C271.197 137.27 247.606 147.845 226.337 168.997C201.454 194.088 183.568 230.499 172.673 278.222C168.524 300.854 166.447 319.802 166.447 335.041C166.447 368.491 173.444 393.59 187.452 410.322C201.447 427.04 220.118 435.413 243.451 435.413C257.96 435.413 271.579 433.079 284.281 428.395C296.983 423.712 310.603 415.964 325.125 405.145Z" fill="#5C607C"/>
</svg>
