<svg width="1300" height="358" viewBox="0 0 1300 358" fill="none" xmlns="http://www.w3.org/2000/svg">
<path fill-rule="evenodd" clip-rule="evenodd" d="M150.504 1.7273C87.5255 11.2982 34.9423 45.8523 11.1623 93.2895C1.44906 112.667 0 118.664 0 139.485C0 175.708 12.5369 199.255 41.8253 218.051C68.5358 235.19 86.8786 239.24 135.849 238.803C159.865 238.586 185.337 237.092 192.453 235.478L205.391 232.541L214.237 197.065C219.105 177.555 223.843 158.39 224.769 154.483C226.441 147.422 226.328 147.432 207.836 156.1C192.372 163.346 184.738 164.824 162.77 164.824C132.582 164.824 122.177 159.733 112.441 140.19C102.572 120.391 115.265 96.3137 143.117 81.9882C168.327 69.021 206.125 72.1585 227.531 88.9973C233.987 94.0755 236.471 94.6933 237.48 91.4814C239.236 85.889 249.056 19.5041 249.056 13.2356C249.056 3.97851 184.945 -3.50935 150.504 1.7273ZM354.33 47.1235C313.788 53.0329 282.103 68.882 257.317 95.6539C235.902 118.787 228.375 138.877 230.228 167.977C232.56 204.572 256.894 229.009 300.99 239.036C391.316 259.582 484.075 212.607 493.885 141.354L495.997 126.01L500.176 136.221C507.04 152.998 525.69 163.045 559.568 168.207C577.39 170.924 585.444 174.906 585.444 180.996C585.444 195.577 539.867 196.169 518.254 181.866L505.3 173.292L487.274 200.377L469.251 227.46L484.489 232.363C549.244 253.2 614.037 245.544 650.37 212.759C666.53 198.175 672.776 184.913 672.776 165.176C672.776 139.126 656.927 127.711 607.07 117.859C586.612 113.819 580.36 107.001 590.39 99.6647C600.837 92.0248 622.719 94.4442 650.38 106.295C654.174 107.922 659.42 102.553 670.871 85.3359C679.335 72.6049 685.047 61.0836 683.563 59.7283C682.078 58.3731 673.584 54.9316 664.689 52.082C598.984 31.0351 520.172 56.9046 502.056 105.467L495.926 121.899L491.844 107.318C489.6 99.296 483.49 87.5515 478.266 81.2151C466.117 66.4755 434.448 51.0987 407.547 46.8777C383.958 43.1774 381.341 43.1871 354.33 47.1235ZM971.967 45.7876C926.396 51.8297 886.489 75.1472 863.66 109.064C831.198 157.297 842.561 207.474 891.386 231.513C910.033 240.692 917.233 242.374 942.526 243.464C966.397 244.493 1007.81 240.459 1010.91 236.804C1011.3 236.351 1015.22 220.467 1019.63 201.506L1027.64 167.03L1014.45 173.906C996.882 183.063 965.226 185.146 951.502 178.053C938.419 171.286 930.442 156.136 933.247 143.372C937.662 123.277 964.929 105.057 990.669 105.005C1001.2 104.982 1021.06 112.748 1029.11 120.026C1034.29 124.716 1034.87 124.515 1036.46 117.477C1041.96 93.1116 1047.09 54.4981 1045.11 52.4151C1042.64 49.8243 999.011 43.4685 988.139 44.1154C984.581 44.3257 977.304 45.0793 971.967 45.7876ZM1162.8 45.7876C1094.88 54.7957 1040.67 100.891 1035.88 153.713C1031.4 203.091 1070.22 238.014 1135.14 243.018C1164.94 245.317 1205.74 237.94 1232.25 225.461C1256.99 213.813 1287.88 182.416 1294.86 161.822C1301.94 140.943 1301.68 113.25 1294.24 96.8701C1277.29 59.5634 1221.73 37.9699 1162.8 45.7876ZM689.472 68.5973C685.856 80.6038 681.92 94.4313 680.72 99.3251L678.543 108.22H701.537C714.181 108.22 724.528 109.316 724.528 110.656C724.528 111.991 715.795 141.222 705.121 175.607C694.447 209.997 685.714 238.78 685.714 239.576C685.714 240.372 704.914 240.614 728.383 240.12L771.049 239.217L790.871 174.527L810.688 109.837L835.07 108.902L859.452 107.964L868 79.4814C872.703 63.8135 876.549 50.0442 876.549 48.8798C876.549 47.7154 835.937 46.7645 786.297 46.7645H696.048L689.472 68.5973ZM398.497 118.079C407.388 126.97 408.187 129.412 406.651 143.033C405.302 155.007 402.595 160.292 393.571 168.56C359.657 199.64 306.016 182.028 317.081 143.444C323.43 121.313 342.986 108.249 369.791 108.233C386.494 108.22 389.76 109.342 398.497 118.079ZM1203.51 117.225C1215.11 127.595 1216.96 142.816 1208.57 159.027C1189.82 195.289 1122.37 190.903 1122.37 153.419C1122.37 127.837 1145.85 108.233 1176.5 108.226C1190.45 108.22 1195.2 109.802 1203.51 117.225ZM1263.07 223.692C1266.63 224.526 1271.36 227.547 1273.58 230.403C1275.81 233.262 1277.63 234.158 1277.63 232.396C1277.63 226.903 1270.16 221.411 1263.23 221.803C1256.75 222.171 1256.74 222.21 1263.07 223.692ZM1249.69 229.514C1247.2 235.996 1250.54 244.082 1255.69 244.02C1258.8 243.982 1258.71 243.254 1255.33 241.116C1252.69 239.444 1251.56 235.446 1252.6 231.461C1254.64 223.675 1252.48 222.233 1249.69 229.514ZM1257.11 232.586C1255.99 235.51 1257.45 236.351 1261.7 235.239C1269.13 233.295 1269.41 232.396 1263.34 230.063C1260.82 229.096 1258.02 230.232 1257.11 232.586ZM701.398 271.035C681.926 276.491 670.751 283.979 662.93 296.804C656.128 307.963 655.397 305.133 659.543 283.691L662.202 269.945H645.066C626.923 269.945 627.496 269.424 622.88 290.16C621.166 297.859 619.329 299.055 609.202 299.055H597.502L599.498 284.5L601.494 269.945H564.75H528.009L517.177 294.016C504.899 321.302 501.47 320.465 501.396 290.16L501.347 269.945H485.686H470.021L457.384 296.629L444.744 323.314L443.912 303.907C442.463 270.194 442.305 269.945 422.041 269.945C412.289 269.945 404.274 271.038 404.228 272.371C404.183 273.703 408.184 292.628 413.12 314.419L422.096 354.042H438.456H454.816L465.878 331.174C471.962 318.598 477.228 309.503 477.58 310.958C477.933 312.417 479.133 323.072 480.245 334.635L482.273 355.659L499.086 354.559L515.903 353.46L538.256 316.421C550.554 296.051 561.619 278.762 562.848 278.002C564.077 277.242 561.671 294.404 557.498 316.14C553.322 337.876 549.897 355.659 549.881 355.659C549.868 355.659 557.806 355.164 567.525 354.559C585.978 353.408 585.629 353.731 590.057 333.826C591.771 326.128 593.608 324.931 603.735 324.931H615.435L613.439 339.487L611.443 354.042H629.026H646.605L648.637 341.912C649.753 335.243 651.884 326.144 653.378 321.697C656.015 313.843 656.099 313.898 656.348 323.65C657.373 364.001 738.003 367.682 765.367 328.628C769.985 322.033 772.858 319.695 771.887 323.314C770.936 326.872 769.19 335.243 768.006 341.912L765.855 354.042H800.118H834.378L836.325 345.147C837.399 340.253 838.835 334.434 839.521 332.209C840.4 329.35 836.06 328.166 824.697 328.166C806.17 328.166 806.286 328.502 813.476 295.821C816.019 284.258 818.154 273.703 818.215 272.371C818.276 271.038 809.763 269.945 799.293 269.945H780.258L777.975 288.233L775.691 306.521L769.769 293.301C760.055 271.598 731.983 262.457 701.398 271.035ZM963.069 271.358C946.055 275.851 935.546 283.763 931.083 295.439C925.38 310.35 932.399 317.463 958.45 323.172C963.564 324.291 967.008 326.895 966.284 329.094C964.405 334.797 951.826 335.786 940.557 331.119C932.445 327.758 930.339 327.849 928.149 331.662C926.697 334.185 923.152 339.163 920.27 342.721C915.098 349.106 915.056 349.093 917.032 341.912C918.918 335.059 918.077 334.635 902.642 334.635C888.562 334.635 886.253 333.749 886.253 328.344C886.253 323.133 888.892 321.881 901.617 321.066C915.687 320.164 917.068 319.329 918.003 311.185C918.973 302.772 918.316 302.29 905.873 302.29C896.338 302.29 892.722 300.954 892.722 297.438C892.722 293.786 896.632 292.586 908.516 292.586C922.162 292.586 924.578 291.597 926.263 285.309C930.439 269.718 930.336 269.673 893.805 270.644L859.309 271.562L851.948 308.759C841.332 362.419 838.621 357.276 877.519 357.276C895.843 357.276 912.277 355.834 914.037 354.074C916.152 351.959 921.036 351.959 928.411 354.074C945.809 359.062 967.397 357.739 982.825 350.739C994.191 345.58 996.556 345.283 995.055 349.193C993.531 353.162 996.636 354.042 1012.15 354.042C1026.02 354.042 1031.61 352.738 1032.98 349.19C1035.59 342.365 1062.8 342.511 1066.64 349.371C1069.01 353.605 1077.58 354.375 1120.71 354.229C1148.89 354.132 1172.5 353.505 1173.18 352.832C1173.85 352.159 1175.26 346.334 1176.3 339.888L1178.2 328.166H1163.23C1145.19 328.166 1145.44 330.058 1156.54 277.222C1157.99 270.33 1157.07 269.945 1139.16 269.945H1120.26L1116.24 291.778C1104.76 354.262 1104.96 354.165 1093.24 303.098L1085.62 269.945H1064.23H1042.83L1025.19 299.091C1012.64 319.827 1007.25 326.377 1006.52 321.797C1005.22 313.649 991.025 302.306 982.042 302.241C971.242 302.164 964.722 296.921 969.489 292.153C972.533 289.109 976.194 289.07 985.633 291.975C996.788 295.407 998.325 295.109 1003.43 288.498C1013.64 275.288 1011.94 273.386 985.713 268.622C981.709 267.897 971.52 269.127 963.069 271.358ZM6.469 281.266V292.586H202.502C379.931 292.586 398.348 292.101 396.572 287.469C395.492 284.655 394.609 279.561 394.609 276.149C394.609 270.103 389.696 269.945 200.539 269.945H6.469V281.266ZM1198.53 273.988C1196.97 278.963 1183.76 351.487 1183.8 354.85C1183.81 356.183 1199.84 357.276 1219.41 357.276C1252.32 357.276 1254.99 356.811 1254.99 351.073C1254.99 347.66 1255.87 342.566 1256.95 339.752C1258.58 335.498 1256.13 334.635 1242.39 334.635C1228.19 334.635 1225.88 333.755 1225.88 328.344C1225.88 323.133 1228.51 321.881 1241.24 321.066C1255.31 320.164 1256.69 319.329 1257.62 311.185C1258.6 302.772 1257.94 302.29 1245.5 302.29C1235.96 302.29 1232.34 300.954 1232.34 297.438C1232.34 293.786 1236.25 292.586 1248.14 292.586C1261.78 292.586 1264.2 291.597 1265.89 285.309C1269.97 270.077 1269.69 269.945 1233.86 269.945C1209.44 269.945 1199.44 271.09 1198.53 273.988ZM730.35 299.702C736.835 306.187 734.713 317.615 725.708 324.695C715.526 332.707 709.015 333.121 699.373 326.364C690.433 320.105 690.326 315.225 698.888 304.344C706.185 295.067 723.205 292.557 730.35 299.702ZM1064.15 311.993C1064.15 323.638 1063.34 324.931 1056.06 324.931C1046.47 324.931 1046.49 325.041 1053.43 310.486C1060.57 295.517 1064.15 296.021 1064.15 311.993ZM6.469 313.611V324.931H205.769H405.066L403.116 317.654C402.045 313.653 401.146 308.558 401.123 306.333C401.088 303.144 359.437 302.29 203.773 302.29H6.469V313.611ZM6.469 345.147V355.659L208.625 354.802C423.05 353.893 414.491 354.537 408.818 339.752C407.058 335.162 386.228 334.635 206.662 334.635H6.469V345.147Z" fill="#5C607C"/>
</svg>
