<svg width="1300" height="504" viewBox="0 0 1300 504" fill="none" xmlns="http://www.w3.org/2000/svg">
<path d="M0 10.4558V52.6457H129.688C144.73 52.6457 152.251 55.5806 159.771 63.2849C165.825 70.8057 165.825 73.9241 165.825 101.072V318.259C165.825 358.981 158.304 366.502 122.167 366.502H86.0308V95.0191H0V413.278H159.771C197.559 413.278 208.015 410.343 226.175 392.183C242.684 375.674 245.802 363.567 245.802 316.791V88.9657C245.802 60.3499 242.867 49.7107 230.761 34.6691C215.719 18.16 196.091 10.4558 168.943 10.4558H0V10.4558ZM271.483 413.278H351.46V208.015C351.46 192.973 351.46 188.387 354.395 183.801C358.981 173.162 370.904 167.292 386.13 167.292C399.704 167.292 408.692 170.227 419.331 177.931V117.581C330.365 119.049 301.75 125.102 271.483 149.316V413.278ZM481.149 0C455.468 0 435.84 19.6275 435.84 43.6574C435.84 69.3382 455.468 88.9657 481.149 88.9657C505.362 88.9657 524.806 69.3382 524.806 43.6574C524.806 19.6275 505.178 0 481.149 0V0ZM588.091 0C562.41 0 542.783 19.6275 542.783 43.6574C542.783 69.3382 562.41 88.9657 588.091 88.9657C612.304 88.9657 631.748 69.3382 631.748 43.6574C631.932 19.6275 612.304 0 588.091 0V0ZM554.889 224.707H485.551C458.403 224.707 446.296 227.642 432.722 241.216C417.68 253.323 410.159 271.3 410.159 295.513V342.289C410.159 363.384 414.745 378.425 426.669 391.999C441.71 408.509 455.284 413.094 487.018 413.094H636.334V188.571C636.334 168.943 630.281 152.434 616.707 138.86C600.197 122.351 586.623 117.765 556.357 117.765H435.657V178.115C465.74 166.008 485.368 161.606 512.516 161.606C541.132 161.606 554.706 170.594 554.706 190.222V224.707H554.889ZM554.889 366.502H520.22C506.646 366.502 496.007 361.916 490.137 351.46C487.202 346.875 487.202 345.407 487.202 331.833V304.685C487.202 282.122 497.841 271.483 520.404 271.483H555.073V366.502H554.889ZM876.083 119.049H734.472C707.323 119.049 696.684 121.984 681.642 134.091C666.601 147.665 659.08 167.292 659.08 189.855V233.512C659.08 251.672 665.133 269.649 677.24 283.223C692.282 299.732 704.388 304.318 734.472 304.318H799.407C828.023 304.318 840.13 299.732 853.704 289.276C868.746 275.702 876.266 257.542 876.266 233.512V119.049H876.083ZM734.472 194.441C734.472 174.813 746.578 162.706 769.141 162.706C791.703 162.706 803.81 174.813 803.81 194.441V229.11C803.81 248.737 790.236 260.844 769.141 260.844C746.578 260.844 734.472 248.737 734.472 229.11V194.441ZM882.136 387.597C882.136 365.035 877.55 349.81 865.627 336.235C850.586 319.726 833.893 315.14 802.342 315.14H735.939C705.856 315.14 693.749 318.075 678.707 330.182C663.666 343.756 654.494 364.851 654.494 387.414V431.071C654.494 452.166 662.015 470.326 674.122 482.433C689.163 498.942 702.737 503.528 735.939 503.528H802.342C830.958 503.528 844.532 500.593 859.574 488.486C874.615 474.912 882.136 458.403 882.136 431.254V387.597ZM734.472 395.118C734.472 372.555 745.111 360.449 767.673 360.449C790.236 360.449 802.342 372.555 802.342 395.118V428.319C802.342 447.947 790.236 460.054 769.141 460.054C746.578 460.054 734.472 447.947 734.472 428.319V395.118ZM1126.47 304.685V190.038C1126.47 141.795 1100.79 119.232 1046.49 119.232H980.274C951.658 119.232 939.551 122.167 924.51 134.274C909.468 147.848 900.296 167.476 900.296 190.038V342.289C900.296 363.384 906.35 378.425 919.924 393.65C934.965 408.692 948.54 413.278 980.274 413.278H1125V352.928C1084.28 365.035 1060.07 367.97 1029.98 367.97C995.315 367.97 980.274 360.449 980.274 340.821V304.685H1126.47V304.685ZM980.274 257.909V197.559C980.274 174.996 990.913 162.89 1013.48 162.89C1034.57 162.89 1046.68 174.996 1046.68 196.091V257.909H980.274ZM1152.15 413.278H1232.13V208.015C1232.13 192.973 1232.13 188.387 1235.06 183.801C1239.65 173.162 1251.57 167.292 1266.8 167.292C1280.37 167.292 1289.36 170.227 1300 177.931V117.581C1211.03 119.049 1182.42 125.102 1152.15 149.316V413.278Z" fill="#5C607C"/>
</svg>
