<svg width="512" height="512" viewBox="0 0 512 512" fill="none" xmlns="http://www.w3.org/2000/svg">
<path d="M451.733 144.879H451.887C461.588 144.838 470.69 141.022 477.521 134.135C484.351 127.247 488.09 118.112 488.05 108.412C487.99 94.3099 472.807 76.8245 460.081 64.6394C455.278 60.043 447.784 60.072 443.021 64.7115C430.397 77.0017 415.361 94.6124 415.42 108.715C415.503 128.689 431.778 144.879 451.733 144.879V144.879ZM451.603 77.3452C464.66 90.2082 473.002 102.28 473.028 108.474C473.052 114.162 470.859 119.518 466.854 123.557C462.849 127.595 457.511 129.834 451.824 129.857C451.793 129.857 451.764 129.857 451.734 129.857C440.035 129.856 430.49 120.363 430.44 108.652C430.414 102.457 438.655 90.3153 451.603 77.3452V77.3452Z" fill="#21B6FF"/>
<path d="M361.767 131.062C356.965 126.467 349.472 126.497 344.706 131.134C332.083 143.423 317.047 161.034 317.106 175.138C317.147 184.838 320.962 193.942 327.85 200.773C334.701 207.566 343.774 211.301 353.416 211.301H353.573C363.273 211.26 372.377 207.445 379.206 200.557C386.037 193.67 389.776 184.535 389.735 174.834C389.677 160.734 374.494 143.248 361.767 131.062V131.062ZM368.542 189.981C364.536 194.019 359.199 196.257 353.511 196.28C353.48 196.28 353.449 196.28 353.419 196.28C347.766 196.28 342.445 194.089 338.427 190.107C334.389 186.102 332.152 180.764 332.128 175.076C332.102 168.88 340.342 156.738 353.29 143.768C366.348 156.631 374.689 168.704 374.715 174.896C374.739 180.584 372.546 185.941 368.542 189.981V189.981Z" fill="#21B6FF"/>
<path d="M246.394 195.869C233.77 208.159 218.734 225.77 218.793 239.872C218.877 259.845 235.153 276.035 255.107 276.035H255.261C264.962 275.994 274.064 272.179 280.895 265.291C287.726 258.403 291.464 249.269 291.424 239.568C291.365 225.466 276.181 207.981 263.455 195.796C258.651 191.199 251.158 191.23 246.394 195.869ZM276.402 239.632C276.426 245.32 274.233 250.677 270.228 254.715C266.223 258.754 260.885 260.992 255.198 261.015C255.167 261.015 255.138 261.015 255.108 261.015C243.409 261.014 233.864 251.522 233.814 239.81C233.788 233.615 242.029 221.473 254.977 208.503C268.034 221.366 276.376 233.438 276.402 239.632V239.632Z" fill="#21B6FF"/>
<path d="M148.08 233.077C135.457 245.368 120.422 262.981 120.481 277.079C120.522 286.78 124.337 295.884 131.225 302.714C138.076 309.508 147.149 313.243 156.791 313.243H156.948C166.648 313.202 175.752 309.387 182.581 302.499C189.412 295.611 193.151 286.477 193.11 276.776C193.051 262.675 177.868 245.19 165.141 233.004C160.339 228.407 152.845 228.438 148.08 233.077V233.077ZM178.089 276.838C178.113 282.526 175.92 287.883 171.916 291.921C167.911 295.96 162.572 298.198 156.885 298.221C156.854 298.221 156.823 298.221 156.793 298.221C151.14 298.221 145.819 296.03 141.801 292.047C137.763 288.043 135.526 282.704 135.502 277.016C135.476 270.824 143.717 258.681 156.664 245.709C169.722 258.574 178.063 270.645 178.089 276.838V276.838Z" fill="#21B6FF"/>
<path d="M58.4759 331.78H58.6342C68.3347 331.739 77.4375 327.923 84.268 321.036C91.0986 314.148 94.8368 305.013 94.7967 295.313C94.7366 281.211 79.5544 263.725 66.8276 251.54C62.0249 246.943 54.5314 246.975 49.7678 251.613C37.1441 263.904 22.1081 281.516 22.1672 295.616C22.2082 305.318 26.0236 314.42 32.9112 321.251C39.7618 328.045 48.8355 331.78 58.4759 331.78V331.78ZM58.3518 264.247C71.409 277.11 79.7507 289.182 79.7767 295.376C79.8008 301.064 77.6077 306.42 73.6031 310.459C69.5985 314.497 64.26 316.736 58.5721 316.759C58.541 316.759 58.51 316.759 58.4789 316.759C52.826 316.759 47.5056 314.568 43.489 310.586C39.4503 306.58 37.2122 301.242 37.1882 295.554C37.1621 289.361 45.4017 277.219 58.3518 264.247V264.247Z" fill="#21B6FF"/>
<path d="M40.0131 217.199C40.4317 217.199 40.8563 217.164 41.2839 217.092C105.391 206.165 166.833 184.772 223.907 153.507C276.342 124.783 323.715 88.4437 364.97 45.3925V62.155C364.97 66.3038 368.333 69.6655 372.481 69.6655C376.629 69.6655 379.992 66.3038 379.992 62.155V26.2898C379.992 22.141 376.629 18.7793 372.481 18.7793H335.996C331.848 18.7793 328.485 22.141 328.485 26.2898C328.485 30.4386 331.848 33.8003 335.996 33.8003H355.283C314.819 76.2707 268.265 112.08 216.69 140.333C161.083 170.796 101.219 191.639 38.7593 202.284C34.6706 202.981 31.9208 206.86 32.6178 210.949C33.2426 214.611 36.4191 217.199 40.0131 217.199V217.199Z" fill="#21B6FF"/>
<path d="M504.489 478.2H492.401V260.314C492.401 256.165 489.038 252.804 484.89 252.804C480.742 252.804 477.38 256.165 477.38 260.314V478.2H426.09V223.877C444.1 208.754 461.303 192.436 477.38 175.229V228.307C477.38 232.456 480.742 235.818 484.89 235.818C489.038 235.818 492.401 232.456 492.401 228.307V161.746C492.401 157.648 489.927 154.057 486.1 152.598C482.264 151.136 478.022 152.173 475.289 155.238C456.606 176.198 436.184 195.937 414.591 213.912C412.353 215.777 411.069 218.517 411.069 221.428V478.2H394.087V249.489C394.087 245.818 392.063 242.488 388.807 240.799C385.544 239.109 381.651 239.375 378.645 241.495C359.331 255.124 338.908 267.697 317.947 278.861C314.745 280.564 312.755 283.873 312.755 287.498V478.199H295.774V387.042C295.774 382.894 292.411 379.532 288.263 379.532C284.115 379.532 280.753 382.894 280.753 387.042V478.199H229.463V332.582C246.792 326.996 263.996 320.547 280.753 313.358V355.037C280.753 359.185 284.115 362.547 288.263 362.547C292.411 362.547 295.774 359.185 295.774 355.037V305.362C295.774 302.032 294.106 298.961 291.314 297.151C288.52 295.337 285.035 295.067 281.993 296.423C262.287 305.203 241.864 312.941 221.29 319.422C217.195 320.713 214.442 324.464 214.442 328.757V478.2H197.46V338.968C197.46 335.943 196.096 333.136 193.717 331.269C191.337 329.402 188.286 328.744 185.346 329.462C165.417 334.33 144.994 338.158 124.642 340.838C119.789 341.478 116.128 345.65 116.128 350.542V478.2H99.1477V354.189C99.1477 351.489 98.0171 348.882 96.0443 347.039C94.0716 345.195 91.3958 344.232 88.694 344.424C75.8961 345.29 62.951 345.73 50.2202 345.73H27.6106C22.2091 345.73 17.8159 350.124 17.8159 355.524V411.201C17.8159 415.35 21.1786 418.712 25.3264 418.712C29.4742 418.712 32.8369 415.35 32.8369 411.201V360.751H50.2202C61.4399 360.751 72.8198 360.418 84.1266 359.761V478.2H32.8369V443.209C32.8369 439.06 29.4742 435.698 25.3264 435.698C21.1786 435.698 17.8159 439.06 17.8159 443.209V478.2H7.5105C3.3627 478.2 0 481.562 0 485.71C0 489.859 3.3627 493.221 7.5105 493.221H504.489C508.637 493.221 512 489.859 512 485.71C512 481.562 508.637 478.2 504.489 478.2V478.2ZM131.149 478.2V355.113C148.33 352.711 165.534 349.518 182.439 345.594V478.2H131.149ZM327.775 478.2V290.636C345.369 281.142 362.573 270.69 379.065 259.476V478.2H327.775Z" fill="#21B6FF"/>
</svg>
