<svg width="518" height="518" viewBox="0 0 518 518" fill="none" xmlns="http://www.w3.org/2000/svg">
<mask id="path-1-outside-1_39_16584" maskUnits="userSpaceOnUse" x="0" y="0" width="518" height="518" fill="black">
<rect fill="white" width="518" height="518"/>
<path d="M497.933 412.6V113.933C497.905 90.381 478.819 71.295 455.266 71.266H320.244C316.523 66.94 312.666 62.733 308.758 58.466C295.125 44.71 283.437 29.155 274.019 12.232C271.108 6.564 265.27 3 258.898 3C252.541 3.001 246.72 6.559 243.82 12.216C234.4 29.145 222.709 44.706 209.072 58.467C205.172 62.734 201.392 67 197.637 71.31H62.733C39.181 71.338 20.095 90.424 20.066 113.977V412.6C10.641 412.6 3 420.241 3 429.667V455.267C3.038 488.241 29.759 514.962 62.733 515H455.266C488.238 514.958 514.957 488.239 514.999 455.267V429.667C515 420.241 507.359 412.6 497.933 412.6ZM221.675 69.935C236.337 55.127 248.858 38.341 258.872 20.066C268.942 38.319 281.489 55.093 296.154 69.909C317.428 93.222 335.8 113.335 335.8 155.208C335.818 177.529 326.372 198.811 309.807 213.772C293.735 228.369 272.162 235.348 250.586 232.929C208.721 228.458 178.223 188.01 182.601 142.749C185.861 109.138 202.458 90.97 221.675 69.935ZM62.733 88.333H184.504C173.744 104 167.237 122.192 165.62 141.129C160.338 195.657 197.646 244.468 248.777 249.929C252.173 250.284 255.585 250.464 259 250.467C281.993 250.502 304.17 241.947 321.182 226.48C341.36 208.282 352.875 182.381 352.866 155.21C353.573 131.431 346.775 108.032 333.436 88.334H455.266C469.404 88.334 480.866 99.796 480.866 113.934V267.986C468.293 269.369 456.33 274.132 446.246 281.767C426.346 296.923 398.775 296.923 378.875 281.767C353.249 262.789 318.229 262.789 292.603 281.767C272.719 296.922 245.159 296.922 225.275 281.767C212.915 272.291 197.712 267.274 182.139 267.533C166.569 267.275 151.369 272.291 139.012 281.767C129.469 289.347 117.584 293.366 105.399 293.133C93.203 293.373 81.305 289.353 71.752 281.767C61.67 274.129 49.706 269.366 37.132 267.986V113.933C37.133 99.795 48.595 88.333 62.733 88.333ZM37.133 285.197C46.279 286.609 54.919 290.313 62.247 295.966C74.609 305.453 89.82 310.47 105.4 310.2C120.97 310.458 136.17 305.442 148.527 295.966C158.071 288.388 169.955 284.369 182.14 284.6C194.344 284.358 206.252 288.377 215.813 295.966C241.433 314.943 276.448 314.943 302.068 295.966C321.959 280.811 349.523 280.811 369.413 295.966C395.052 314.944 430.08 314.944 455.719 295.966C463.055 290.305 471.708 286.6 480.867 285.197V412.6H37.133V285.197ZM182.2 429.667H335.8V438.2C335.8 447.626 328.159 455.267 318.733 455.267H199.267C189.841 455.267 182.2 447.626 182.2 438.2V429.667ZM497.933 455.267C497.905 478.819 478.819 497.905 455.266 497.934H62.733C39.181 497.906 20.095 478.82 20.066 455.267V429.667H165.133V438.2C165.133 457.051 180.415 472.333 199.266 472.333H318.733C337.584 472.333 352.866 457.051 352.866 438.2V429.667H497.933V455.267Z"/>
<path fill-rule="evenodd" clip-rule="evenodd" d="M139.533 446.733H113.933C109.22 446.733 105.4 450.553 105.4 455.266C105.4 459.979 109.221 463.799 113.933 463.799H139.533C144.246 463.799 148.066 459.979 148.066 455.266C148.066 450.553 144.246 446.733 139.533 446.733Z"/>
<path d="M45.667 463.8C50.3796 463.8 54.2 459.98 54.2 455.267C54.2 450.554 50.3796 446.734 45.667 446.734C40.9544 446.734 37.134 450.554 37.134 455.267C37.134 459.98 40.9544 463.8 45.667 463.8Z"/>
<path d="M79.8 463.8C84.5126 463.8 88.333 459.98 88.333 455.267C88.333 450.554 84.5126 446.734 79.8 446.734C75.0874 446.734 71.267 450.554 71.267 455.267C71.267 459.98 75.0874 463.8 79.8 463.8Z"/>
<path fill-rule="evenodd" clip-rule="evenodd" d="M194.394 368.397C198.261 371.09 203.579 370.139 206.272 366.272C208.957 362.404 208.003 357.093 204.139 354.402C202.731 353.412 201.357 352.405 199.975 351.407C187.853 341.136 172.427 335.593 156.54 335.8C140.669 335.592 125.258 341.13 113.148 351.39C111.791 352.371 110.434 353.361 109.061 354.325C105.264 357.043 104.357 362.309 107.026 366.141C109.695 369.973 114.948 370.948 118.814 368.329C120.29 367.296 121.741 366.238 123.183 365.189C142.395 348.747 170.719 348.747 189.931 365.189C191.407 366.281 192.884 367.373 194.394 368.397Z"/>
<path fill-rule="evenodd" clip-rule="evenodd" d="M323.614 368.329C325.09 367.296 326.541 366.238 327.983 365.189C347.195 348.747 375.519 348.747 394.731 365.189C396.207 366.264 397.684 367.331 399.194 368.38C403.054 370.848 408.175 369.826 410.793 366.066C413.411 362.306 412.593 357.149 408.939 354.385C407.531 353.395 406.149 352.388 404.775 351.39C379.569 330.593 343.155 330.593 317.948 351.39C316.591 352.371 315.234 353.361 313.861 354.325C310.064 357.043 309.157 362.309 311.826 366.141C314.495 369.973 319.748 370.948 323.614 368.329Z"/>
<path fill-rule="evenodd" clip-rule="evenodd" d="M252.395 215.983C252.698 216.017 253.003 216.034 253.308 216.034C257.832 216.015 261.555 212.467 261.793 207.949C262.031 203.431 258.701 199.513 254.204 199.018C233.127 195.15 217.509 177.246 216.538 155.839C216.084 151.175 211.953 147.749 207.285 148.166C202.617 148.583 199.159 152.686 199.539 157.357C201.009 186.97 223.094 211.466 252.395 215.983Z"/>
</mask>
<path d="M497.933 412.6V113.933C497.905 90.381 478.819 71.295 455.266 71.266H320.244C316.523 66.94 312.666 62.733 308.758 58.466C295.125 44.71 283.437 29.155 274.019 12.232C271.108 6.564 265.27 3 258.898 3C252.541 3.001 246.72 6.559 243.82 12.216C234.4 29.145 222.709 44.706 209.072 58.467C205.172 62.734 201.392 67 197.637 71.31H62.733C39.181 71.338 20.095 90.424 20.066 113.977V412.6C10.641 412.6 3 420.241 3 429.667V455.267C3.038 488.241 29.759 514.962 62.733 515H455.266C488.238 514.958 514.957 488.239 514.999 455.267V429.667C515 420.241 507.359 412.6 497.933 412.6ZM221.675 69.935C236.337 55.127 248.858 38.341 258.872 20.066C268.942 38.319 281.489 55.093 296.154 69.909C317.428 93.222 335.8 113.335 335.8 155.208C335.818 177.529 326.372 198.811 309.807 213.772C293.735 228.369 272.162 235.348 250.586 232.929C208.721 228.458 178.223 188.01 182.601 142.749C185.861 109.138 202.458 90.97 221.675 69.935ZM62.733 88.333H184.504C173.744 104 167.237 122.192 165.62 141.129C160.338 195.657 197.646 244.468 248.777 249.929C252.173 250.284 255.585 250.464 259 250.467C281.993 250.502 304.17 241.947 321.182 226.48C341.36 208.282 352.875 182.381 352.866 155.21C353.573 131.431 346.775 108.032 333.436 88.334H455.266C469.404 88.334 480.866 99.796 480.866 113.934V267.986C468.293 269.369 456.33 274.132 446.246 281.767C426.346 296.923 398.775 296.923 378.875 281.767C353.249 262.789 318.229 262.789 292.603 281.767C272.719 296.922 245.159 296.922 225.275 281.767C212.915 272.291 197.712 267.274 182.139 267.533C166.569 267.275 151.369 272.291 139.012 281.767C129.469 289.347 117.584 293.366 105.399 293.133C93.203 293.373 81.305 289.353 71.752 281.767C61.67 274.129 49.706 269.366 37.132 267.986V113.933C37.133 99.795 48.595 88.333 62.733 88.333ZM37.133 285.197C46.279 286.609 54.919 290.313 62.247 295.966C74.609 305.453 89.82 310.47 105.4 310.2C120.97 310.458 136.17 305.442 148.527 295.966C158.071 288.388 169.955 284.369 182.14 284.6C194.344 284.358 206.252 288.377 215.813 295.966C241.433 314.943 276.448 314.943 302.068 295.966C321.959 280.811 349.523 280.811 369.413 295.966C395.052 314.944 430.08 314.944 455.719 295.966C463.055 290.305 471.708 286.6 480.867 285.197V412.6H37.133V285.197ZM182.2 429.667H335.8V438.2C335.8 447.626 328.159 455.267 318.733 455.267H199.267C189.841 455.267 182.2 447.626 182.2 438.2V429.667ZM497.933 455.267C497.905 478.819 478.819 497.905 455.266 497.934H62.733C39.181 497.906 20.095 478.82 20.066 455.267V429.667H165.133V438.2C165.133 457.051 180.415 472.333 199.266 472.333H318.733C337.584 472.333 352.866 457.051 352.866 438.2V429.667H497.933V455.267Z" fill="white"/>
<path fill-rule="evenodd" clip-rule="evenodd" d="M139.533 446.733H113.933C109.22 446.733 105.4 450.553 105.4 455.266C105.4 459.979 109.221 463.799 113.933 463.799H139.533C144.246 463.799 148.066 459.979 148.066 455.266C148.066 450.553 144.246 446.733 139.533 446.733Z" fill="white"/>
<path d="M45.667 463.8C50.3796 463.8 54.2 459.98 54.2 455.267C54.2 450.554 50.3796 446.734 45.667 446.734C40.9544 446.734 37.134 450.554 37.134 455.267C37.134 459.98 40.9544 463.8 45.667 463.8Z" fill="white"/>
<path d="M79.8 463.8C84.5126 463.8 88.333 459.98 88.333 455.267C88.333 450.554 84.5126 446.734 79.8 446.734C75.0874 446.734 71.267 450.554 71.267 455.267C71.267 459.98 75.0874 463.8 79.8 463.8Z" fill="white"/>
<path fill-rule="evenodd" clip-rule="evenodd" d="M194.394 368.397C198.261 371.09 203.579 370.139 206.272 366.272C208.957 362.404 208.003 357.093 204.139 354.402C202.731 353.412 201.357 352.405 199.975 351.407C187.853 341.136 172.427 335.593 156.54 335.8C140.669 335.592 125.258 341.13 113.148 351.39C111.791 352.371 110.434 353.361 109.061 354.325C105.264 357.043 104.357 362.309 107.026 366.141C109.695 369.973 114.948 370.948 118.814 368.329C120.29 367.296 121.741 366.238 123.183 365.189C142.395 348.747 170.719 348.747 189.931 365.189C191.407 366.281 192.884 367.373 194.394 368.397Z" fill="white"/>
<path fill-rule="evenodd" clip-rule="evenodd" d="M323.614 368.329C325.09 367.296 326.541 366.238 327.983 365.189C347.195 348.747 375.519 348.747 394.731 365.189C396.207 366.264 397.684 367.331 399.194 368.38C403.054 370.848 408.175 369.826 410.793 366.066C413.411 362.306 412.593 357.149 408.939 354.385C407.531 353.395 406.149 352.388 404.775 351.39C379.569 330.593 343.155 330.593 317.948 351.39C316.591 352.371 315.234 353.361 313.861 354.325C310.064 357.043 309.157 362.309 311.826 366.141C314.495 369.973 319.748 370.948 323.614 368.329Z" fill="white"/>
<path fill-rule="evenodd" clip-rule="evenodd" d="M252.395 215.983C252.698 216.017 253.003 216.034 253.308 216.034C257.832 216.015 261.555 212.467 261.793 207.949C262.031 203.431 258.701 199.513 254.204 199.018C233.127 195.15 217.509 177.246 216.538 155.839C216.084 151.175 211.953 147.749 207.285 148.166C202.617 148.583 199.159 152.686 199.539 157.357C201.009 186.97 223.094 211.466 252.395 215.983Z" fill="white"/>
<path d="M497.933 412.6V113.933C497.905 90.381 478.819 71.295 455.266 71.266H320.244C316.523 66.94 312.666 62.733 308.758 58.466C295.125 44.71 283.437 29.155 274.019 12.232C271.108 6.564 265.27 3 258.898 3C252.541 3.001 246.72 6.559 243.82 12.216C234.4 29.145 222.709 44.706 209.072 58.467C205.172 62.734 201.392 67 197.637 71.31H62.733C39.181 71.338 20.095 90.424 20.066 113.977V412.6C10.641 412.6 3 420.241 3 429.667V455.267C3.038 488.241 29.759 514.962 62.733 515H455.266C488.238 514.958 514.957 488.239 514.999 455.267V429.667C515 420.241 507.359 412.6 497.933 412.6ZM221.675 69.935C236.337 55.127 248.858 38.341 258.872 20.066C268.942 38.319 281.489 55.093 296.154 69.909C317.428 93.222 335.8 113.335 335.8 155.208C335.818 177.529 326.372 198.811 309.807 213.772C293.735 228.369 272.162 235.348 250.586 232.929C208.721 228.458 178.223 188.01 182.601 142.749C185.861 109.138 202.458 90.97 221.675 69.935ZM62.733 88.333H184.504C173.744 104 167.237 122.192 165.62 141.129C160.338 195.657 197.646 244.468 248.777 249.929C252.173 250.284 255.585 250.464 259 250.467C281.993 250.502 304.17 241.947 321.182 226.48C341.36 208.282 352.875 182.381 352.866 155.21C353.573 131.431 346.775 108.032 333.436 88.334H455.266C469.404 88.334 480.866 99.796 480.866 113.934V267.986C468.293 269.369 456.33 274.132 446.246 281.767C426.346 296.923 398.775 296.923 378.875 281.767C353.249 262.789 318.229 262.789 292.603 281.767C272.719 296.922 245.159 296.922 225.275 281.767C212.915 272.291 197.712 267.274 182.139 267.533C166.569 267.275 151.369 272.291 139.012 281.767C129.469 289.347 117.584 293.366 105.399 293.133C93.203 293.373 81.305 289.353 71.752 281.767C61.67 274.129 49.706 269.366 37.132 267.986V113.933C37.133 99.795 48.595 88.333 62.733 88.333ZM37.133 285.197C46.279 286.609 54.919 290.313 62.247 295.966C74.609 305.453 89.82 310.47 105.4 310.2C120.97 310.458 136.17 305.442 148.527 295.966C158.071 288.388 169.955 284.369 182.14 284.6C194.344 284.358 206.252 288.377 215.813 295.966C241.433 314.943 276.448 314.943 302.068 295.966C321.959 280.811 349.523 280.811 369.413 295.966C395.052 314.944 430.08 314.944 455.719 295.966C463.055 290.305 471.708 286.6 480.867 285.197V412.6H37.133V285.197ZM182.2 429.667H335.8V438.2C335.8 447.626 328.159 455.267 318.733 455.267H199.267C189.841 455.267 182.2 447.626 182.2 438.2V429.667ZM497.933 455.267C497.905 478.819 478.819 497.905 455.266 497.934H62.733C39.181 497.906 20.095 478.82 20.066 455.267V429.667H165.133V438.2C165.133 457.051 180.415 472.333 199.266 472.333H318.733C337.584 472.333 352.866 457.051 352.866 438.2V429.667H497.933V455.267Z" stroke="white" stroke-width="6" mask="url(#path-1-outside-1_39_16584)"/>
<path fill-rule="evenodd" clip-rule="evenodd" d="M139.533 446.733H113.933C109.22 446.733 105.4 450.553 105.4 455.266C105.4 459.979 109.221 463.799 113.933 463.799H139.533C144.246 463.799 148.066 459.979 148.066 455.266C148.066 450.553 144.246 446.733 139.533 446.733Z" stroke="white" stroke-width="6" mask="url(#path-1-outside-1_39_16584)"/>
<path d="M45.667 463.8C50.3796 463.8 54.2 459.98 54.2 455.267C54.2 450.554 50.3796 446.734 45.667 446.734C40.9544 446.734 37.134 450.554 37.134 455.267C37.134 459.98 40.9544 463.8 45.667 463.8Z" stroke="white" stroke-width="6" mask="url(#path-1-outside-1_39_16584)"/>
<path d="M79.8 463.8C84.5126 463.8 88.333 459.98 88.333 455.267C88.333 450.554 84.5126 446.734 79.8 446.734C75.0874 446.734 71.267 450.554 71.267 455.267C71.267 459.98 75.0874 463.8 79.8 463.8Z" stroke="white" stroke-width="6" mask="url(#path-1-outside-1_39_16584)"/>
<path fill-rule="evenodd" clip-rule="evenodd" d="M194.394 368.397C198.261 371.09 203.579 370.139 206.272 366.272C208.957 362.404 208.003 357.093 204.139 354.402C202.731 353.412 201.357 352.405 199.975 351.407C187.853 341.136 172.427 335.593 156.54 335.8C140.669 335.592 125.258 341.13 113.148 351.39C111.791 352.371 110.434 353.361 109.061 354.325C105.264 357.043 104.357 362.309 107.026 366.141C109.695 369.973 114.948 370.948 118.814 368.329C120.29 367.296 121.741 366.238 123.183 365.189C142.395 348.747 170.719 348.747 189.931 365.189C191.407 366.281 192.884 367.373 194.394 368.397Z" stroke="white" stroke-width="6" mask="url(#path-1-outside-1_39_16584)"/>
<path fill-rule="evenodd" clip-rule="evenodd" d="M323.614 368.329C325.09 367.296 326.541 366.238 327.983 365.189C347.195 348.747 375.519 348.747 394.731 365.189C396.207 366.264 397.684 367.331 399.194 368.38C403.054 370.848 408.175 369.826 410.793 366.066C413.411 362.306 412.593 357.149 408.939 354.385C407.531 353.395 406.149 352.388 404.775 351.39C379.569 330.593 343.155 330.593 317.948 351.39C316.591 352.371 315.234 353.361 313.861 354.325C310.064 357.043 309.157 362.309 311.826 366.141C314.495 369.973 319.748 370.948 323.614 368.329Z" stroke="white" stroke-width="6" mask="url(#path-1-outside-1_39_16584)"/>
<path fill-rule="evenodd" clip-rule="evenodd" d="M252.395 215.983C252.698 216.017 253.003 216.034 253.308 216.034C257.832 216.015 261.555 212.467 261.793 207.949C262.031 203.431 258.701 199.513 254.204 199.018C233.127 195.15 217.509 177.246 216.538 155.839C216.084 151.175 211.953 147.749 207.285 148.166C202.617 148.583 199.159 152.686 199.539 157.357C201.009 186.97 223.094 211.466 252.395 215.983Z" stroke="white" stroke-width="6" mask="url(#path-1-outside-1_39_16584)"/>
</svg>
