<svg width="512" height="512" viewBox="0 0 512 512" fill="none" xmlns="http://www.w3.org/2000/svg">
<g clip-path="url(#clip0_12_425)">
<path d="M431.213 252.535V232.686C431.213 222.635 423.836 214.296 414.217 212.74V206.63C414.217 179.736 400.768 154.91 378.242 140.219L358.934 127.627C355.462 125.363 350.814 126.342 348.548 129.814C346.283 133.286 347.263 137.935 350.736 140.2L370.043 152.792C371.108 153.486 372.145 154.212 373.159 154.96L357.364 158.425C321.831 166.223 284.303 166.069 248.836 157.979C208.88 148.866 166.735 149.251 126.953 159.091L125.547 159.438C128.175 157.013 131.021 154.784 134.08 152.791L211.856 102.067C213.98 100.681 215.261 98.3165 215.261 95.7808V83.4122H288.861V95.7828C288.861 98.3196 290.142 100.683 292.267 102.069L323.923 122.715C325.189 123.54 326.61 123.934 328.016 123.934C330.466 123.934 332.87 122.735 334.309 120.528C336.574 117.056 335.594 112.405 332.122 110.142L303.872 91.7179V82.5496C313.337 79.8577 320.293 71.1396 320.293 60.8214V22.5918C320.293 10.1341 310.158 0 297.701 0H206.42C193.963 0 183.828 10.1341 183.828 22.5918V60.8204C183.828 71.1376 190.784 79.8557 200.25 82.5486V91.7169L125.88 140.22C103.353 154.911 89.9047 179.737 89.9047 206.631V215.801C84.4189 219.424 80.7874 225.636 80.7874 232.687V252.536C80.7874 259.587 84.4189 265.799 89.9047 269.422V298.98C84.4189 302.603 80.7874 308.815 80.7874 315.866V335.715C80.7874 342.766 84.4189 348.978 89.9047 352.601V382.159C84.4189 385.782 80.7874 391.994 80.7874 399.045V418.894C80.7874 425.945 84.4189 432.157 89.9047 435.78V470.39C89.9047 493.334 108.571 512.001 131.516 512.001H372.606C395.551 512.001 414.217 493.334 414.217 470.39V438.84C423.837 437.285 431.213 428.946 431.213 418.894V399.045C431.213 388.994 423.836 380.655 414.217 379.099V355.66C423.837 354.105 431.213 345.766 431.213 335.714V315.865C431.213 305.814 423.836 297.475 414.217 295.919V272.481C423.837 270.926 431.213 262.587 431.213 252.535V252.535ZM244.556 68.4017H229.203V15.0105H244.556V68.4017ZM259.566 15.0105H274.919V68.4017H259.566V15.0105ZM305.283 22.5918V60.8204C305.283 65.0003 301.882 68.4017 297.702 68.4017H289.929V15.0105H297.702C301.881 15.0105 305.283 18.4108 305.283 22.5918ZM198.839 22.5918C198.839 18.4118 202.239 15.0105 206.42 15.0105H214.192V68.4017H206.42C202.239 68.4017 198.839 65.0013 198.839 60.8204V22.5918ZM104.915 295.636V272.764H399.206V295.636H104.915ZM130.556 173.664C168.07 164.384 207.818 164.02 245.496 172.615C283.107 181.193 322.903 181.355 360.58 173.089L385.963 167.519C394.45 178.57 399.206 192.234 399.206 206.63V212.457H171.606C167.46 212.457 164.1 215.817 164.1 219.962C164.1 224.107 167.46 227.468 171.606 227.468H410.985C413.863 227.468 416.203 229.808 416.203 232.686V252.535C416.203 255.412 413.863 257.754 410.985 257.754H101.016C98.1384 257.754 95.7978 255.413 95.7978 252.535V232.686C95.7978 229.809 98.1384 227.468 101.016 227.468H139.621C143.767 227.468 147.127 224.107 147.127 219.962C147.127 215.817 143.767 212.457 139.621 212.457H104.915V206.63C104.915 196.659 107.202 187.041 111.424 178.396L130.556 173.664ZM372.606 496.99H131.516C116.848 496.99 104.915 485.056 104.915 470.389V439.122H399.206V470.389C399.206 485.056 387.273 496.99 372.606 496.99ZM416.202 399.044V418.893C416.202 421.77 413.862 424.112 410.984 424.112H101.016C98.1384 424.112 95.7978 421.771 95.7978 418.893V399.044C95.7978 396.167 98.1384 393.826 101.016 393.826H329.223C333.368 393.826 336.728 390.465 336.728 386.32C336.728 382.175 333.368 378.815 329.223 378.815H104.916V355.943H399.207V378.815H361.207C357.061 378.815 353.702 382.175 353.702 386.32C353.702 390.465 357.061 393.826 361.207 393.826H410.985C413.862 393.826 416.202 396.167 416.202 399.044V399.044ZM416.202 315.865V335.714C416.202 338.591 413.862 340.933 410.984 340.933H101.016C98.1384 340.933 95.7978 338.592 95.7978 335.714V315.865C95.7978 312.988 98.1384 310.647 101.016 310.647H410.985C413.862 310.647 416.202 312.988 416.202 315.865V315.865Z" fill="#21B6FF"/>
</g>
<defs>
<clipPath id="clip0_12_425">
<rect width="512" height="512" fill="white"/>
</clipPath>
</defs>
</svg>
