<svg xmlns="http://www.w3.org/2000/svg" xmlns:xlink="http://www.w3.org/1999/xlink" version="1.1"
            x="0px" y="0px" viewBox="0 0 100 100" enable-background="new 0 0 100 100" xml:space="preserve"
            style="max-width:100%" height="100%">
            <g display="none" style="" fill="currentColor">
                <g display="inline" style="" fill="currentColor">
                    <path
                        d="M50,5C25.147,5,5,25.147,5,50c0,24.852,20.147,45,45,45c24.852,0,45-20.148,45-45C95,25.147,74.852,5,50,5z M50,90    c-22.092,0-40-17.909-40-40c0-22.092,17.908-40,40-40c22.091,0,40,17.908,40,40C90,72.091,72.091,90,50,90z"
                        style="" fill="currentColor"></path>
                    <path
                        d="M67.471,46.642L56.072,38.75l-9.841-6.813c-2.709-1.875-6.409,0.063-6.409,3.358V50v14.705c0,3.295,3.7,5.233,6.409,3.358    l9.841-6.813l11.399-7.892C69.817,51.734,69.817,48.266,67.471,46.642z"
                        style="" fill="currentColor"></path>
                </g>
            </g>
            <g style="" fill="currentColor">
                <path
                    d="M50,5C25.147,5,5,25.147,5,50c0,24.852,20.147,45,45,45c24.852,0,45-20.148,45-45C95,25.147,74.852,5,50,5z M67.471,46.642   c2.346,1.624,2.346,5.092,0,6.716L56.072,61.25l-9.841,6.813c-2.709,1.875-6.409-0.063-6.409-3.358l0-14.705l0-14.705   c0-3.295,3.7-5.233,6.409-3.358l9.841,6.813L67.471,46.642z"
                    style="" fill="currentColor"></path>
            </g>
</svg>
