<svg width="512" height="512" viewBox="0 0 512 512" fill="none" xmlns="http://www.w3.org/2000/svg">
<path d="M141.385 249.361H107.296C97.1982 249.361 88.9829 257.575 88.9829 267.673V298.816C88.9829 308.913 97.1982 317.128 107.296 317.128H141.385C151.483 317.128 159.698 308.913 159.698 298.816V267.673C159.697 257.575 151.483 249.361 141.385 249.361V249.361ZM144.676 298.815C144.676 300.629 143.199 302.106 141.384 302.106H107.295C105.48 302.106 104.003 300.629 104.003 298.815V267.672C104.003 265.857 105.48 264.38 107.295 264.38H141.384C143.199 264.38 144.676 265.857 144.676 267.672V298.815Z" fill="#21B6FF"/>
<path d="M141.385 410.567H107.296C97.1982 410.567 88.9829 418.783 88.9829 428.88V460.022C88.9829 470.12 97.1982 478.335 107.296 478.335H141.385C151.483 478.335 159.698 470.12 159.698 460.022V428.88C159.697 418.783 151.483 410.567 141.385 410.567ZM144.676 460.022C144.676 461.838 143.199 463.315 141.384 463.315H107.295C105.48 463.315 104.003 461.838 104.003 460.022V428.88C104.003 427.065 105.48 425.588 107.295 425.588H141.384C143.199 425.588 144.676 427.065 144.676 428.88V460.022Z" fill="#21B6FF"/>
<path d="M405.119 275.733H190.606C186.459 275.733 183.096 279.095 183.096 283.244C183.096 287.392 186.459 290.754 190.606 290.754H405.118C409.265 290.754 412.628 287.392 412.628 283.244C412.628 279.095 409.266 275.733 405.119 275.733Z" fill="#21B6FF"/>
<path d="M405.119 356.338H190.606C186.459 356.338 183.096 359.699 183.096 363.848C183.096 367.997 186.459 371.358 190.606 371.358H405.118C409.265 371.358 412.628 367.997 412.628 363.848C412.628 359.699 409.266 356.338 405.119 356.338Z" fill="#21B6FF"/>
<path d="M405.119 436.94H190.606C186.459 436.94 183.096 440.302 183.096 444.451C183.096 448.599 186.459 451.961 190.606 451.961H405.118C409.265 451.961 412.628 448.599 412.628 444.451C412.628 440.302 409.266 436.94 405.119 436.94Z" fill="#21B6FF"/>
<path d="M153.175 334.285C149.987 331.594 145.875 329.964 141.385 329.964H107.296C97.1982 329.964 88.9829 338.179 88.9829 348.277V379.419C88.9829 389.517 97.1982 397.731 107.296 397.731H141.385C151.483 397.731 159.698 389.517 159.698 379.419V348.535L187.245 324.46C190.368 321.73 190.687 316.986 187.958 313.862C185.227 310.739 180.483 310.42 177.36 313.149L153.175 334.285ZM144.676 379.418C144.676 381.233 143.199 382.71 141.384 382.71H107.295C105.48 382.71 104.003 381.233 104.003 379.418V348.276C104.003 346.461 105.48 344.984 107.295 344.984H140.932L126.743 357.385L124.674 355.41C121.674 352.547 116.92 352.656 114.055 355.657C111.191 358.657 111.302 363.411 114.303 366.275L121.333 372.986C122.781 374.369 124.649 375.064 126.52 375.064C128.28 375.064 130.044 374.448 131.462 373.209L144.676 361.66V379.418Z" fill="#21B6FF"/>
<path d="M458.129 417.888C453.981 417.888 450.619 421.25 450.619 425.398V493.693C450.619 495.505 449.145 496.978 447.333 496.978H64.6667C62.8552 496.978 61.3812 495.504 61.3812 493.693V18.3051C61.3812 16.4936 62.8552 15.0206 64.6667 15.0206H108.337C112.484 15.0206 115.847 11.659 115.847 7.5103C115.847 3.36161 112.484 0 108.337 0H64.6667C54.5729 0 46.3606 8.21126 46.3606 18.3051V493.693C46.3606 503.787 54.5729 511.999 64.6667 511.999H447.333C457.427 511.999 465.639 503.787 465.639 493.693V425.398C465.639 421.251 462.277 417.888 458.129 417.888V417.888Z" fill="#21B6FF"/>
<path d="M463.44 86.2543L379.384 2.20002C377.976 0.791085 376.067 0 374.074 0H140.344C136.196 0 132.833 3.36161 132.833 7.5103C132.833 11.659 136.196 15.0206 140.344 15.0206H365.751V79.9556C365.751 90.0495 373.963 98.2607 384.057 98.2607H450.62V393.392C450.62 397.541 453.983 400.903 458.13 400.903C462.278 400.903 465.641 397.541 465.641 393.392V91.5645C465.64 89.5728 464.848 87.6632 463.44 86.2543V86.2543ZM380.77 79.9556V24.827L439.183 83.2401H384.056C382.244 83.2401 380.77 81.7661 380.77 79.9556Z" fill="#21B6FF"/>
<path d="M252.899 73.9792C254.396 72.5232 256.753 72.5112 258.262 73.9582C263.866 79.3215 272.396 87.8001 281.217 97.7358C283.972 100.837 288.719 101.119 291.82 98.3656C294.921 95.6119 295.203 90.8643 292.449 87.7631C283.292 77.451 274.452 68.6639 268.648 63.1073C261.263 56.0386 249.741 56.0867 242.418 63.2174C218.964 86.0538 179.637 129.073 179.769 160.621C179.946 202.515 214.082 236.475 255.936 236.474C256.043 236.474 256.153 236.473 256.261 236.473C276.607 236.387 295.702 228.384 310.029 213.936C324.356 199.488 332.198 180.327 332.113 159.981C332.06 147.399 325.711 131.895 313.243 113.901C310.881 110.491 306.204 109.643 302.793 112.004C299.383 114.367 298.535 119.046 300.897 122.456C311.454 137.69 317.054 150.687 317.093 160.043C317.162 176.378 310.865 191.761 299.363 203.36C287.862 214.957 272.533 221.383 256.198 221.451C256.11 221.451 256.026 221.452 255.937 221.452C222.339 221.452 194.931 194.187 194.79 160.557C194.714 141.846 216.436 109.481 252.899 73.9792V73.9792Z" fill="#21B6FF"/>
</svg>
