<svg width="448" height="448" viewBox="0 0 448 448" fill="none" xmlns="http://www.w3.org/2000/svg">
<g clip-path="url(#clip0_38_16565)">
<path d="M432.703 206.904L402.203 193.704L376.303 143.304C369.303 129.504 355.103 120.904 339.603 121.004H295.003V108.404C295.003 85.6039 276.803 67.0039 254.003 67.0039H40.8032C18.0032 67.0039 0.00314907 85.7039 0.00314907 108.404V301.404C-0.196851 315.304 10.9031 326.704 24.8031 326.904C24.9031 326.904 25.0031 326.904 25.2031 326.904H30.5031C30.5031 327.904 30.4031 328.304 30.4031 328.904C30.3031 357.504 53.4032 380.804 82.0032 380.904C110.603 381.004 133.903 357.904 134.003 329.304C134.003 329.104 134.003 329.004 134.003 328.804C134.003 328.104 134.003 327.804 133.903 326.804H306.203C306.203 327.804 306.203 328.204 306.203 328.804C306.103 357.404 329.203 380.704 357.803 380.804C386.403 380.904 409.703 357.804 409.803 329.204C409.803 329.004 409.803 328.904 409.803 328.704C409.803 328.004 409.803 327.704 409.803 326.704H422.703C436.603 326.704 447.903 315.404 447.903 301.504C447.903 301.404 447.903 301.304 447.903 301.104V230.104C448.103 220.304 442.103 211.004 432.703 206.904ZM82.3032 361.004C64.7032 361.004 50.5031 346.804 50.5031 329.204C50.5031 311.604 64.7032 297.404 82.3032 297.404C99.9032 297.404 114.103 311.604 114.103 329.204C114.103 346.704 99.8032 361.004 82.3032 361.004ZM275.003 307.104H129.203C120.803 288.804 102.403 277.104 82.3032 277.204C62.1032 277.104 43.8031 288.704 35.4031 307.104H25.2031C22.1031 307.104 20.0031 304.704 20.0031 301.604V250.104H275.003V307.104ZM275.003 108.504V230.104H20.0031V108.504C20.0031 96.8039 29.1032 87.1039 40.8032 87.1039H254.003C265.703 87.2039 275.103 96.8039 275.003 108.404V108.504ZM295.003 141.104H339.603C347.503 141.004 354.903 145.304 358.603 152.404L378.603 191.104H295.003V141.104V141.104ZM358.103 361.004C340.503 361.004 326.303 346.804 326.303 329.204C326.303 311.604 340.503 297.404 358.103 297.404C375.703 297.404 389.903 311.604 389.903 329.204C389.903 346.704 375.703 361.004 358.103 361.004ZM428.003 301.604C428.003 304.704 425.903 307.104 422.803 307.104H405.003C392.903 281.204 362.103 270.004 336.203 282.104C325.203 287.204 316.303 296.104 311.203 307.104H295.003V211.104H393.003L424.803 225.104C426.803 226.104 428.103 228.304 428.003 230.504V301.604Z" fill="#FFFCFC"/>
</g>
<defs>
<clipPath id="clip0_38_16565">
<rect width="447.907" height="447.907" fill="white"/>
</clipPath>
</defs>
</svg>
