<svg width="1723" height="435" viewBox="0 0 1723 435" fill="none" xmlns="http://www.w3.org/2000/svg">
<path d="M536.05 254.85C526.25 254.85 516.217 254.033 505.95 252.4C495.917 251 486.233 248.9 476.9 246.1C467.8 243.3 459.633 239.8 452.4 235.6C447.267 232.8 443.65 229.183 441.55 224.75C439.45 220.083 438.633 215.417 439.1 210.75C439.8 206.083 441.55 202 444.35 198.5C447.383 194.767 451.117 192.433 455.55 191.5C460.217 190.333 465.35 191.15 470.95 193.95C480.517 199.317 490.9 203.283 502.1 205.85C513.533 208.417 524.85 209.7 536.05 209.7C553.083 209.7 565.217 207.133 572.45 202C579.683 196.633 583.3 189.983 583.3 182.05C583.3 175.283 580.733 169.917 575.6 165.95C570.467 161.983 561.483 158.6 548.65 155.8L509.1 147.4C486.7 142.733 470.017 134.8 459.05 123.6C448.317 112.167 442.95 97.2333 442.95 78.8C442.95 67.1333 445.4 56.5167 450.3 46.95C455.2 37.3833 462.083 29.1 470.95 22.1C479.817 15.1 490.317 9.73332 502.45 5.99998C514.817 2.26666 528.35 0.399993 543.05 0.399993C556.117 0.399993 568.95 2.03333 581.55 5.29999C594.15 8.33333 605.233 12.8833 614.8 18.95C619.467 21.75 622.617 25.3667 624.25 29.8C626.117 34 626.7 38.3167 626 42.75C625.533 46.95 623.783 50.6833 620.75 53.95C617.95 57.2167 614.333 59.3167 609.9 60.25C605.467 61.1833 600.1 60.1333 593.8 57.1C586.1 53.1333 577.933 50.2167 569.3 48.35C560.667 46.4833 551.8 45.55 542.7 45.55C532.9 45.55 524.5 46.8333 517.5 49.4C510.733 51.9667 505.483 55.5833 501.75 60.25C498.25 64.9167 496.5 70.2833 496.5 76.35C496.5 83.1167 498.95 88.6 503.85 92.8C508.75 97 517.267 100.383 529.4 102.95L568.95 111.35C591.817 116.25 608.85 124.183 620.05 135.15C631.25 145.883 636.85 160.117 636.85 177.85C636.85 189.517 634.517 200.133 629.85 209.7C625.183 219.033 618.417 227.083 609.55 233.85C600.683 240.617 590.067 245.867 577.7 249.6C565.333 253.1 551.45 254.85 536.05 254.85ZM694.119 317.15C685.485 317.15 678.835 314.817 674.169 310.15C669.735 305.717 667.519 299.067 667.519 290.2V102.95C667.519 94.3167 669.735 87.7833 674.169 83.35C678.835 78.6833 685.252 76.35 693.419 76.35C702.052 76.35 708.585 78.6833 713.019 83.35C717.452 87.7833 719.669 94.3167 719.669 102.95V126.75L715.819 113.1C719.319 101.9 726.319 92.9167 736.819 86.15C747.552 79.15 759.802 75.65 773.569 75.65C788.502 75.65 801.569 79.2667 812.769 86.5C824.202 93.7333 833.069 104 839.369 117.3C845.669 130.6 848.819 146.467 848.819 164.9C848.819 183.333 845.669 199.317 839.369 212.85C833.069 226.383 824.319 236.767 813.119 244C801.919 251.233 788.735 254.85 773.569 254.85C760.035 254.85 748.019 251.583 737.519 245.05C727.019 238.283 719.902 229.533 716.169 218.8H720.369V290.2C720.369 299.067 718.035 305.717 713.369 310.15C708.935 314.817 702.519 317.15 694.119 317.15ZM757.819 215.3C765.285 215.3 771.819 213.433 777.419 209.7C783.252 205.967 787.685 200.483 790.719 193.25C793.985 185.783 795.619 176.333 795.619 164.9C795.619 147.867 792.119 135.383 785.119 127.45C778.119 119.283 769.019 115.2 757.819 115.2C750.352 115.2 743.702 116.95 737.869 120.45C732.269 123.95 727.835 129.433 724.569 136.9C721.302 144.133 719.669 153.467 719.669 164.9C719.669 181.933 723.169 194.65 730.169 203.05C737.169 211.217 746.385 215.3 757.819 215.3ZM939.242 254.85C926.642 254.85 915.325 252.4 905.292 247.5C895.258 242.6 887.442 235.95 881.842 227.55C876.242 219.15 873.442 209.7 873.442 199.2C873.442 186.6 876.708 176.683 883.242 169.45C889.775 161.983 900.392 156.733 915.092 153.7C929.792 150.433 949.275 148.8 973.542 148.8H992.092V176.1H973.892C961.992 176.1 952.308 176.8 944.842 178.2C937.608 179.367 932.358 181.467 929.092 184.5C926.058 187.533 924.542 191.733 924.542 197.1C924.542 203.633 926.758 209 931.192 213.2C935.858 217.4 942.508 219.5 951.142 219.5C957.908 219.5 963.858 217.983 968.992 214.95C974.358 211.683 978.558 207.367 981.592 202C984.625 196.4 986.142 190.1 986.142 183.1V142.85C986.142 132.583 983.808 125.35 979.142 121.15C974.475 116.717 966.542 114.5 955.342 114.5C949.042 114.5 942.158 115.317 934.692 116.95C927.458 118.35 919.408 120.8 910.542 124.3C905.408 126.633 900.858 127.217 896.892 126.05C892.925 124.65 889.892 122.317 887.792 119.05C885.692 115.55 884.642 111.817 884.642 107.85C884.642 103.65 885.808 99.6833 888.142 95.95C890.475 91.9833 894.325 89.0667 899.692 87.2C910.658 82.7667 920.925 79.7333 930.492 78.1C940.292 76.4667 949.275 75.65 957.442 75.65C975.408 75.65 990.108 78.3333 1001.54 83.7C1013.21 88.8333 1021.96 96.8833 1027.79 107.85C1033.63 118.583 1036.54 132.467 1036.54 149.5V227.2C1036.54 235.833 1034.44 242.483 1030.24 247.15C1026.04 251.817 1019.98 254.15 1012.04 254.15C1004.11 254.15 997.925 251.817 993.492 247.15C989.292 242.483 987.192 235.833 987.192 227.2V214.25L989.642 216.35C988.242 224.283 985.208 231.167 980.542 237C976.108 242.6 970.392 247.033 963.392 250.3C956.392 253.333 948.342 254.85 939.242 254.85ZM1103.27 254.15C1094.4 254.15 1087.63 251.817 1082.97 247.15C1078.3 242.483 1075.97 235.833 1075.97 227.2V102.95C1075.97 94.3167 1078.18 87.7833 1082.62 83.35C1087.28 78.6833 1093.7 76.35 1101.87 76.35C1110.27 76.35 1116.68 78.6833 1121.12 83.35C1125.55 87.7833 1127.77 94.3167 1127.77 102.95V121.15H1124.27C1127.07 107.15 1133.25 96.3 1142.82 88.6C1152.38 80.9 1164.75 76.5833 1179.92 75.65C1185.75 75.1833 1190.18 76.7 1193.22 80.2C1196.48 83.4667 1198.23 88.95 1198.47 96.65C1198.93 103.883 1197.42 109.6 1193.92 113.8C1190.65 118 1185.05 120.567 1177.12 121.5L1169.07 122.2C1155.77 123.367 1145.85 127.217 1139.32 133.75C1133.02 140.283 1129.87 149.733 1129.87 162.1V227.2C1129.87 235.833 1127.53 242.483 1122.87 247.15C1118.43 251.817 1111.9 254.15 1103.27 254.15ZM1246.8 254.15C1238.17 254.15 1231.52 251.817 1226.85 247.15C1222.42 242.483 1220.2 235.833 1220.2 227.2V28.05C1220.2 19.1833 1222.42 12.5333 1226.85 8.1C1231.52 3.43332 1238.17 1.09998 1246.8 1.09998C1255.2 1.09998 1261.62 3.43332 1266.05 8.1C1270.72 12.5333 1273.05 19.1833 1273.05 28.05V150.2H1273.75L1324.5 93.85C1329.64 88.0167 1334.3 83.7 1338.5 80.9C1342.94 77.8667 1348.77 76.35 1356 76.35C1363.24 76.35 1368.72 78.2167 1372.45 81.95C1376.42 85.6833 1378.4 90.2333 1378.4 95.6C1378.64 100.733 1376.42 105.983 1371.75 111.35L1318.2 171.2V151.25L1377.7 219.85C1382.14 225.217 1384 230.583 1383.3 235.95C1382.84 241.317 1380.5 245.75 1376.3 249.25C1372.1 252.517 1366.74 254.15 1360.2 254.15C1352.27 254.15 1345.85 252.633 1340.95 249.6C1336.29 246.567 1331.5 241.9 1326.6 235.6L1273.75 176.8H1273.05V227.2C1273.05 245.167 1264.3 254.15 1246.8 254.15ZM1477.32 254.85C1456.55 254.85 1441.04 249.133 1430.77 237.7C1420.5 226.033 1415.37 208.767 1415.37 185.9V28.05C1415.37 19.1833 1417.59 12.5333 1422.02 8.1C1426.69 3.43332 1433.34 1.09998 1441.97 1.09998C1450.37 1.09998 1456.79 3.43332 1461.22 8.1C1465.89 12.5333 1468.22 19.1833 1468.22 28.05V183.8C1468.22 193.367 1470.2 200.483 1474.17 205.15C1478.37 209.583 1483.85 211.8 1490.62 211.8C1492.49 211.8 1494.24 211.683 1495.87 211.45C1497.5 211.217 1499.25 211.1 1501.12 211.1C1504.85 210.633 1507.42 211.8 1508.82 214.6C1510.45 217.167 1511.27 222.417 1511.27 230.35C1511.27 237.35 1509.87 242.717 1507.07 246.45C1504.27 249.95 1499.95 252.283 1494.12 253.45C1491.79 253.683 1489.1 253.917 1486.07 254.15C1483.04 254.617 1480.12 254.85 1477.32 254.85ZM1619.46 254.85C1599.16 254.85 1581.66 251.233 1566.96 244C1552.5 236.533 1541.3 226.15 1533.36 212.85C1525.66 199.317 1521.81 183.45 1521.81 165.25C1521.81 147.517 1525.55 132 1533.01 118.7C1540.48 105.167 1550.86 94.6667 1564.16 87.2C1577.7 79.5 1592.98 75.65 1610.01 75.65C1622.38 75.65 1633.58 77.75 1643.61 81.95C1653.65 85.9167 1662.28 91.75 1669.51 99.45C1676.75 106.917 1682.23 116.133 1685.96 127.1C1689.7 137.833 1691.56 149.85 1691.56 163.15C1691.56 167.583 1690.16 170.967 1687.36 173.3C1684.56 175.4 1680.48 176.45 1675.11 176.45H1565.21V149.15H1653.41L1647.81 154.05C1647.81 144.483 1646.41 136.55 1643.61 130.25C1640.81 123.717 1636.73 118.817 1631.36 115.55C1626.23 112.283 1619.81 110.65 1612.11 110.65C1603.48 110.65 1596.13 112.633 1590.06 116.6C1584 120.567 1579.33 126.283 1576.06 133.75C1572.8 141.217 1571.16 150.2 1571.16 160.7V163.5C1571.16 181.233 1575.25 194.3 1583.41 202.7C1591.81 211.1 1604.18 215.3 1620.51 215.3C1626.11 215.3 1632.53 214.6 1639.76 213.2C1647 211.8 1653.76 209.583 1660.06 206.55C1665.43 203.983 1670.21 203.167 1674.41 204.1C1678.61 204.8 1681.88 206.667 1684.21 209.7C1686.55 212.733 1687.83 216.233 1688.06 220.2C1688.53 224.167 1687.71 228.133 1685.61 232.1C1683.51 235.833 1680.01 238.983 1675.11 241.55C1667.18 245.983 1658.2 249.25 1648.16 251.35C1638.36 253.683 1628.8 254.85 1619.46 254.85Z" fill="white"/>
<path d="M441.31 428V371.9H465.875C472.675 371.9 477.69 373.232 480.92 375.895C484.15 378.558 485.765 382.327 485.765 387.2C485.765 390.203 484.858 392.867 483.045 395.19C481.232 397.513 478.568 398.987 475.055 399.61V399.695C478.965 400.262 481.968 401.735 484.065 404.115C486.162 406.495 487.21 409.328 487.21 412.615C487.21 417.432 485.453 421.2 481.94 423.92C478.483 426.64 473.412 428 466.725 428H441.31ZM452.7 419.16H465.705C468.878 419.16 471.23 418.508 472.76 417.205C474.29 415.902 475.055 414.088 475.055 411.765C475.055 409.385 474.29 407.572 472.76 406.325C471.23 405.078 468.878 404.455 465.705 404.455H452.7V419.16ZM452.7 395.445H464.345C470.522 395.445 473.61 393.037 473.61 388.22C473.61 383.403 470.522 380.995 464.345 380.995H452.7V395.445ZM514.569 428V371.9H556.644V381.335H526.299V395.275H550.184V404.285H526.299V418.565H557.834V428H514.569ZM604.993 371.05C610.093 371.05 614.57 371.928 618.423 373.685C622.277 375.442 625.563 378.048 628.283 381.505L621.738 389.07C619.415 386.123 616.865 383.97 614.088 382.61C611.368 381.193 608.195 380.485 604.568 380.485C602.188 380.485 600.205 380.797 598.618 381.42C597.088 382.043 595.955 382.865 595.218 383.885C594.538 384.905 594.198 386.038 594.198 387.285C594.198 388.815 594.793 390.118 595.983 391.195C597.173 392.215 599.213 393.065 602.103 393.745L612.558 396.125C618.112 397.372 622.078 399.242 624.458 401.735C626.895 404.172 628.113 407.345 628.113 411.255C628.113 414.938 627.15 418.112 625.223 420.775C623.297 423.382 620.605 425.393 617.148 426.81C613.692 428.17 609.725 428.85 605.248 428.85C601.338 428.85 597.74 428.397 594.453 427.49C591.223 426.527 588.333 425.223 585.783 423.58C583.233 421.937 581.108 420.038 579.408 417.885L586.038 409.98C587.342 411.793 588.957 413.408 590.883 414.825C592.81 416.242 594.992 417.375 597.428 418.225C599.922 419.018 602.528 419.415 605.248 419.415C607.572 419.415 609.527 419.16 611.113 418.65C612.757 418.083 613.975 417.318 614.768 416.355C615.618 415.335 616.043 414.117 616.043 412.7C616.043 411.227 615.533 409.98 614.513 408.96C613.55 407.883 611.737 407.062 609.073 406.495L597.683 403.945C594.397 403.152 591.563 402.132 589.183 400.885C586.86 399.582 585.075 397.938 583.828 395.955C582.638 393.915 582.043 391.507 582.043 388.73C582.043 385.387 582.95 382.383 584.763 379.72C586.577 377.057 589.183 374.96 592.583 373.43C596.04 371.843 600.177 371.05 604.993 371.05ZM698.153 371.9V381.335H679.368V428H667.638V381.335H648.768V371.9H698.153ZM773.159 428L756.839 371.9H769.334L780.384 418.225L791.604 371.9H802.824L814.214 418.225L825.179 371.9H837.164L820.844 428H807.669L799.849 397.4L797.214 384.14H797.044L794.409 397.4L786.674 428H773.159ZM906.827 428H894.672L889.997 414.315H868.492L863.817 428H851.832L872.317 371.9H886.342L906.827 428ZM871.127 405.645H887.362L879.202 381.165L871.127 405.645ZM968.447 371.9V381.335H949.662V428H937.932V381.335H919.062V371.9H968.447ZM994.182 428V371.9H1036.26V381.335H1005.91V395.275H1029.8V404.285H1005.91V418.565H1037.45V428H994.182ZM1088.86 371.9C1095.2 371.9 1100.19 373.43 1103.82 376.49C1107.44 379.55 1109.26 383.658 1109.26 388.815C1109.26 394.312 1107.44 398.533 1103.82 401.48C1100.19 404.37 1095.23 405.815 1088.94 405.815L1087.75 406.495H1075.68V428H1064.12V371.9H1088.86ZM1087.5 397.57C1090.78 397.57 1093.22 396.918 1094.81 395.615C1096.45 394.255 1097.27 392.187 1097.27 389.41C1097.27 386.633 1096.45 384.593 1094.81 383.29C1093.22 381.93 1090.78 381.25 1087.5 381.25H1075.68V397.57H1087.5ZM1094.38 400.035L1112.57 428H1099.4L1084.35 403.435L1094.38 400.035ZM1201.85 371.9C1210.63 371.9 1217.43 374.337 1222.25 379.21C1227.07 384.027 1229.48 390.94 1229.48 399.95C1229.48 408.903 1227.07 415.817 1222.25 420.69C1217.43 425.563 1210.63 428 1201.85 428H1180.18V371.9H1201.85ZM1201.26 418.65C1206.58 418.65 1210.58 417.063 1213.24 413.89C1215.96 410.66 1217.32 406.013 1217.32 399.95C1217.32 393.887 1215.96 389.268 1213.24 386.095C1210.58 382.865 1206.58 381.25 1201.26 381.25H1191.91V418.65H1201.26ZM1257.42 428V371.9H1299.49V381.335H1269.15V395.275H1293.03V404.285H1269.15V418.565H1300.68V428H1257.42ZM1339.09 418.565H1368.67V428H1327.36V371.9H1339.09V418.565ZM1406.29 371.9V428H1394.56V371.9H1406.29ZM1485.47 371.9L1465.07 428H1451.39L1430.9 371.9H1443.31L1455.13 407.6L1458.36 418.65L1461.5 407.685L1473.4 371.9H1485.47ZM1510.12 428V371.9H1552.19V381.335H1521.85V395.275H1545.73V404.285H1521.85V418.565H1553.38V428H1510.12ZM1604.79 371.9C1611.14 371.9 1616.12 373.43 1619.75 376.49C1623.38 379.55 1625.19 383.658 1625.19 388.815C1625.19 394.312 1623.38 398.533 1619.75 401.48C1616.12 404.37 1611.16 405.815 1604.87 405.815L1603.68 406.495H1591.61V428H1580.05V371.9H1604.79ZM1603.43 397.57C1606.72 397.57 1609.15 396.918 1610.74 395.615C1612.38 394.255 1613.2 392.187 1613.2 389.41C1613.2 386.633 1612.38 384.593 1610.74 383.29C1609.15 381.93 1606.72 381.25 1603.43 381.25H1591.61V397.57H1603.43ZM1610.31 400.035L1628.5 428H1615.33L1600.28 403.435L1610.31 400.035ZM1696.12 371.9L1676.23 407.005V428H1664.5V407.005L1644.61 371.9H1657.11L1666.12 388.73L1670.37 397.485L1674.7 388.73L1683.71 371.9H1696.12Z" fill="white" fill-opacity="0.58"/>
<path fill-rule="evenodd" clip-rule="evenodd" d="M21.3018 182.8C31.2122 165.087 84.0538 100.24 143.403 32.9557C155.508 19.2284 165.863 8 166.406 8C166.954 8 174.662 16.4987 183.533 26.8872L199.665 45.7778L155.563 97.7478C75.1896 192.459 65.0658 205.584 58.0873 224.127C37.6987 278.314 65.1931 342.028 119.886 367.342C134.332 374.03 141.513 374.591 212.428 374.591H289.309L276.088 386.088C210.349 443.259 116.125 441.789 52.8809 382.608C-3.42251 329.926 -16.1064 249.668 21.3018 182.8Z" fill="#21B6FF"/>
<path d="M210.8 93.0871C203.233 102.137 195.972 111.348 194.665 113.551C193.285 115.874 203.87 131.034 219.905 149.694C259.863 196.184 270.562 212.988 277.072 239.486C282.392 261.13 282.392 264.304 277.072 285.869C273.931 298.598 267.399 315.007 262.554 322.325C257.713 329.647 254.557 336.445 255.541 337.43C259.681 341.574 292.045 330.328 303.741 320.687C336.648 293.552 340.017 241.682 312.454 186.556C304.859 171.372 255.885 109.64 228.739 81.0395C225.38 77.5009 221.832 79.8829 210.8 93.0871Z" fill="#78EE4A"/>
</svg>
